# xmcd CD database file
#
# Track frame offsets:
#	150
#	9781
#	27512
#	36693
#	49284
#	57020
#	71495
#	81100
#	94193
#	112656
#	123752
#	138212
#	150722
#	160225
#	169094
#	182659
#	197867
#	207553
#	219753
#	234093
#	245853
#	264216
#
# Disc length: 3652 seconds
#
# Revision: 0
# Processed by: cddbd v1.5.2PL0 Copyright (c) Steve Scherf et al.
# Submitted via: CDex 2.21
#
DISCID=250e4216
DTITLE=Various Artist - Open Road 1
DYEAR=2018
DGENRE=Country
TTITLE0=Dave Dudley - Six Days On The Road 
TTITLE1=Red Sovine - GiddyUp Go
TTITLE2=Lee Conway - Truck Driving Man 
TTITLE3=Claude Gray - How Fast Them Trucks Can Go
TTITLE4=Frankie Miller - Truck Drivin' Buddy 
TTITLE5=Red Sinpson - Im A Truck 
TTITLE6=Ferlin Husky - Truck Drivin' Son Of A Gun  
TTITLE7=Dave Dudley - Me And 'Ol C.B  Max
TTITLE8=David Allan Coe - Roll On 18 Wheeler 
TTITLE9=The Hawking Brothers - Truck Drivers Lament
TTITLE10=Dave Dudley and Charlie Douglas - Where's The Truck
TTITLE11=Jimmy Martin - Widow Maker
TTITLE12=Moore and Napier - Truck Drivers Queen
TTITLE13=Tom Sawyer -Truck Drivers Wife 
TTITLE14=Paul Martin - Old Home Filler Up and Keep On Truckin Cafe  
TTITLE15=Red Sovine - Phantom 309
TTITLE16=Marcie Dickerson -  (I Want To Be) A Truck Drivers Sweetheart
TTITLE17=Grandpa Jones - Eight More Miles To Louisville
TTITLE18=Ferlin Husky - Freightliner Fever 
TTITLE19=The Willis Brothers - Give Me Forty Acres (To Turn This Around)
TTITLE20=Minnie Pearl - Giddy-UpGo Answer
TTITLE21=Commander Cody and His Lost Planet Airmen - I Took Three Bennies and My Semi Truck Wont Start  
EXTD=YEAR: 2018
EXTT0=
EXTT1=
EXTT2=
EXTT3=
EXTT4=
EXTT5=
EXTT6=
EXTT7=
EXTT8=
EXTT9=
EXTT10=
EXTT11=
EXTT12=
EXTT13=
EXTT14=
EXTT15=
EXTT16=
EXTT17=
EXTT18=
EXTT19=
EXTT20=
EXTT21=
PLAYORDER=
